<svg id="svg" xmlns="http://www.w3.org/2000/svg" xmlns:xlink="http://www.w3.org/1999/xlink" width="400" height="400" viewBox="0, 0, 400,400" version="1.1"><g id="svgg"><path id="path0" d="M175.028 95.711 C 166.399 100.400,172.196 108.978,189.626 117.312 C 194.478 119.632,200.494 126.950,201.621 131.902 C 201.983 133.496,202.134 133.402,196.889 134.821 C 190.656 136.508,190.964 136.640,187.096 130.630 C 186.656 129.947,182.800 124.762,180.909 122.312 C 178.177 118.772,165.935 107.539,162.200 105.145 C 161.320 104.581,159.703 103.546,158.608 102.844 C 156.760 101.661,154.944 100.739,151.067 99.014 C 141.491 94.752,128.400 100.417,128.400 108.823 C 128.400 111.895,131.729 118.690,134.271 120.807 C 136.188 122.404,138.955 124.010,140.495 124.422 C 141.433 124.673,142.401 125.043,142.646 125.244 C 142.892 125.444,144.422 125.979,146.046 126.431 C 157.965 129.747,159.109 130.265,162.783 134.007 C 166.623 137.920,167.155 138.577,169.412 142.198 L 171.272 145.182 170.496 146.169 C 170.069 146.711,168.838 147.816,167.760 148.623 C 158.741 155.379,151.259 167.105,147.611 180.204 C 146.083 185.691,144.496 192.092,143.993 194.800 C 143.727 196.230,143.266 198.300,142.968 199.400 C 142.670 200.500,142.153 204.010,141.818 207.200 C 141.484 210.390,141.029 214.530,140.808 216.400 C 140.587 218.270,140.405 221.431,140.403 223.424 C 140.399 228.447,140.623 228.272,133.200 229.042 C 125.277 229.865,89.159 230.276,80.000 229.648 C 70.738 229.013,59.365 227.702,56.200 226.905 C 49.130 225.125,41.206 226.646,40.884 229.845 C 40.623 232.434,52.285 243.863,60.800 249.363 C 61.790 250.002,63.096 250.863,63.702 251.276 C 68.346 254.441,80.760 259.589,85.227 260.204 C 87.570 260.526,87.823 260.817,87.043 262.288 C 85.277 265.618,66.307 276.712,56.435 280.189 C 55.464 280.531,54.474 280.967,54.235 281.157 C 53.996 281.348,52.810 281.794,51.600 282.149 C 47.022 283.492,44.913 285.608,46.385 287.382 C 47.864 289.164,75.940 290.462,95.400 289.648 C 109.611 289.054,131.320 287.683,134.000 287.212 C 135.210 286.999,139.374 286.552,143.253 286.218 C 147.132 285.885,151.182 285.434,152.253 285.216 C 153.324 284.999,156.900 284.538,160.200 284.192 C 163.500 283.846,166.830 283.400,167.600 283.201 C 168.370 283.002,171.610 282.556,174.800 282.211 C 177.990 281.865,181.860 281.326,183.400 281.013 C 184.940 280.699,187.640 280.330,189.400 280.192 C 191.160 280.055,194.490 279.597,196.800 279.176 C 199.110 278.755,203.047 278.222,205.549 277.993 C 208.051 277.764,210.411 277.408,210.794 277.203 C 211.177 276.998,213.540 276.626,216.045 276.377 C 218.550 276.127,221.953 275.673,223.607 275.368 C 225.260 275.063,228.500 274.618,230.807 274.378 C 233.113 274.139,237.070 273.601,239.600 273.182 C 242.130 272.764,246.630 272.233,249.600 272.001 C 252.570 271.770,255.990 271.412,257.200 271.205 C 271.377 268.784,328.157 268.915,337.400 271.391 C 338.500 271.686,341.083 272.161,343.139 272.447 L 346.878 272.967 344.739 273.466 C 341.910 274.127,337.784 274.115,331.200 273.427 C 319.998 272.256,296.020 272.322,273.800 273.586 C 259.106 274.421,253.066 274.852,251.060 275.207 C 249.927 275.408,246.390 275.768,243.200 276.006 C 240.010 276.245,235.150 276.776,232.400 277.187 C 229.650 277.597,225.780 278.051,223.800 278.196 C 221.820 278.341,219.120 278.701,217.800 278.996 C 216.480 279.291,213.331 279.737,210.802 279.987 C 208.272 280.237,204.672 280.774,202.802 281.179 C 200.931 281.585,198.089 282.037,196.487 282.184 C 194.884 282.331,192.724 282.699,191.687 283.002 C 190.649 283.305,188.270 283.754,186.400 284.001 C 184.530 284.248,181.650 284.783,180.000 285.190 C 178.350 285.597,176.190 286.049,175.200 286.193 C 173.357 286.463,169.665 287.288,162.600 289.012 C 160.400 289.548,157.880 290.106,157.000 290.250 C 150.435 291.327,146.025 294.570,144.964 299.101 L 144.472 301.201 145.869 302.353 C 147.787 303.933,153.926 305.066,165.600 305.994 C 175.596 306.788,176.218 307.341,172.801 312.400 C 172.171 313.332,171.106 315.008,168.987 318.400 C 159.282 333.936,158.942 334.752,161.394 336.622 C 163.005 337.851,163.495 337.831,169.800 336.277 C 176.699 334.576,182.455 333.177,186.600 332.195 C 188.800 331.674,192.400 330.807,194.600 330.269 C 196.800 329.731,200.670 328.800,203.200 328.200 C 205.730 327.600,209.600 326.677,211.800 326.149 C 217.614 324.754,224.189 323.255,227.400 322.591 C 228.940 322.273,231.370 321.742,232.800 321.412 C 234.230 321.081,237.200 320.531,239.400 320.190 C 241.600 319.849,243.981 319.384,244.692 319.157 C 245.402 318.929,247.562 318.494,249.492 318.189 C 251.421 317.884,254.710 317.269,256.800 316.822 C 258.890 316.376,261.082 316.008,261.671 316.005 C 262.259 316.002,264.509 315.657,266.671 315.238 C 268.832 314.818,272.850 314.266,275.600 314.011 C 278.350 313.755,281.320 313.392,282.200 313.205 C 283.080 313.017,287.220 312.660,291.400 312.412 C 295.580 312.163,302.330 311.709,306.400 311.401 C 317.004 310.600,319.676 310.456,336.400 309.780 C 362.279 308.735,361.879 308.806,362.279 305.145 C 362.534 302.804,361.095 301.440,356.000 299.195 C 353.910 298.274,351.468 297.178,350.574 296.760 C 349.679 296.342,348.799 296.000,348.618 296.000 C 348.436 296.000,347.548 295.653,346.644 295.229 C 345.740 294.805,343.650 293.871,342.000 293.153 C 337.469 291.183,336.645 289.773,339.160 288.287 C 345.131 284.760,349.052 278.746,347.541 275.431 C 346.850 273.913,347.701 273.079,349.612 273.402 C 351.071 273.649,354.935 272.868,357.069 271.896 C 358.791 271.111,359.275 269.373,358.254 267.638 C 357.079 265.641,347.126 255.710,344.150 253.565 C 342.803 252.594,341.214 251.440,340.620 251.000 C 337.440 248.646,331.845 245.528,326.200 242.965 C 323.865 241.905,319.758 240.462,316.441 239.537 C 312.371 238.401,311.587 237.395,313.723 236.045 C 314.425 235.601,316.377 234.194,318.060 232.919 C 321.271 230.486,321.514 230.332,327.600 226.892 C 331.843 224.493,338.973 221.000,341.365 220.147 C 342.226 219.840,343.126 219.436,343.365 219.248 C 343.604 219.060,344.790 218.588,346.000 218.200 C 347.210 217.812,348.380 217.360,348.600 217.196 C 348.820 217.032,349.450 216.766,350.000 216.604 C 354.599 215.255,355.588 212.790,352.113 211.338 C 348.849 209.974,296.151 209.538,283.800 210.773 C 281.600 210.993,275.059 211.538,269.265 211.985 C 263.470 212.431,258.610 212.870,258.465 212.959 C 258.319 213.049,255.230 213.417,251.600 213.778 C 247.970 214.139,243.560 214.686,241.800 214.994 C 240.040 215.302,235.990 215.843,232.800 216.196 C 229.610 216.549,226.370 216.997,225.600 217.190 C 221.800 218.146,215.204 218.528,214.439 217.836 C 211.678 215.337,212.249 206.862,215.455 202.741 C 215.686 202.444,215.989 201.881,216.128 201.492 C 216.508 200.428,219.383 196.307,220.355 195.435 C 221.118 194.750,221.787 194.678,226.717 194.750 C 232.973 194.842,240.442 194.249,243.400 193.425 C 244.500 193.118,246.480 192.661,247.800 192.409 C 250.600 191.874,256.391 189.886,257.757 188.992 C 260.806 186.994,262.635 188.137,266.984 194.760 C 270.741 200.481,274.872 201.749,280.536 198.918 C 290.684 193.846,291.229 180.994,281.691 171.690 L 278.297 168.380 278.355 165.697 C 278.407 163.330,278.655 162.532,280.466 158.906 C 283.916 151.998,283.434 147.552,279.000 145.383 C 275.689 143.762,273.925 144.213,267.324 148.365 C 257.598 154.482,253.555 156.008,246.287 156.306 C 240.089 156.561,239.953 156.475,240.490 152.655 C 241.374 146.362,238.836 141.953,231.800 137.561 C 229.618 136.198,224.558 134.150,222.559 133.820 C 221.011 133.565,220.833 133.388,219.408 130.675 C 218.114 128.212,216.231 124.999,212.600 119.058 C 211.125 116.645,207.860 112.215,206.364 110.600 C 205.550 109.720,204.242 108.307,203.457 107.460 C 201.376 105.214,194.805 99.987,191.908 98.273 C 189.508 96.853,188.695 96.513,184.200 95.048 C 180.907 93.975,177.812 94.199,175.028 95.711 M181.722 98.009 C 184.130 98.358,188.383 100.050,190.993 101.699 C 196.041 104.888,200.213 108.695,202.942 112.600 C 212.453 126.213,214.955 130.724,213.738 132.069 C 211.506 134.535,205.739 132.663,204.284 129.000 C 203.935 128.120,203.143 126.486,202.525 125.368 C 201.906 124.251,201.059 122.721,200.642 121.968 C 198.448 118.006,192.387 111.079,190.480 110.354 C 188.414 109.569,187.599 110.983,189.427 112.181 C 190.254 112.723,190.361 112.965,189.978 113.427 C 189.326 114.212,188.872 114.152,187.222 113.059 C 186.440 112.542,184.450 111.251,182.800 110.191 C 174.514 104.868,172.151 99.934,177.050 98.188 C 178.929 97.518,178.449 97.536,181.722 98.009 M148.985 101.811 C 151.266 102.340,155.766 104.285,156.997 105.274 C 157.219 105.452,158.504 106.407,159.853 107.397 C 169.352 114.367,179.577 125.670,184.708 134.871 C 186.346 137.810,186.153 138.061,179.862 141.141 L 175.123 143.462 174.062 142.392 C 173.478 141.804,172.283 140.260,171.406 138.961 C 165.538 130.270,158.185 123.131,154.090 122.149 C 153.490 122.005,152.669 121.543,152.264 121.122 C 151.744 120.580,151.099 120.392,150.064 120.478 C 148.077 120.644,148.354 121.324,150.580 121.743 C 152.091 122.028,152.400 122.237,152.400 122.976 C 152.400 123.517,152.795 124.076,153.408 124.404 C 154.140 124.796,154.276 125.031,153.908 125.266 C 153.192 125.720,152.938 125.681,152.268 125.011 C 151.944 124.687,150.536 124.157,149.139 123.833 C 137.644 121.165,131.092 114.631,132.153 106.892 C 132.801 102.159,140.485 99.840,148.985 101.811 M220.400 136.786 C 230.368 139.402,236.735 145.829,235.765 152.297 C 235.173 156.242,231.178 157.054,223.409 154.807 C 218.181 153.296,215.008 154.043,217.756 156.139 C 221.765 159.197,227.387 160.104,241.330 159.941 C 254.115 159.792,253.565 159.678,253.486 162.451 C 253.433 164.281,254.438 165.838,256.126 166.543 C 256.847 166.844,257.740 167.554,258.111 168.121 C 258.905 169.332,259.035 169.257,254.600 170.147 C 253.060 170.457,250.630 170.994,249.200 171.342 C 233.676 175.116,213.565 174.893,200.217 170.799 C 197.191 169.870,192.459 168.798,191.396 168.799 C 190.313 168.800,188.285 170.722,188.573 171.474 C 188.698 171.799,188.800 172.217,188.800 172.402 C 188.800 173.766,192.435 176.361,196.723 178.058 C 197.670 178.433,199.214 179.448,200.153 180.314 C 201.417 181.479,202.340 181.960,203.702 182.164 C 204.715 182.316,205.990 182.791,206.535 183.220 C 207.315 183.834,208.158 184.000,210.488 184.000 C 212.904 184.000,213.609 184.148,214.314 184.806 C 215.784 186.175,216.844 186.362,220.029 185.816 L 223.000 185.307 224.438 186.438 C 225.230 187.061,226.107 187.847,226.387 188.185 C 226.668 188.523,227.371 188.805,227.949 188.812 C 228.941 188.824,228.955 188.850,228.200 189.290 C 227.226 189.856,222.756 189.834,220.585 189.252 C 219.713 189.018,217.121 188.546,214.824 188.202 C 207.758 187.144,194.432 181.530,191.984 178.580 C 191.719 178.261,191.276 178.000,191.000 178.000 C 190.724 178.000,190.251 177.628,189.949 177.174 C 189.585 176.627,189.167 176.437,188.710 176.613 C 187.396 177.118,189.464 179.701,193.983 183.200 C 194.694 183.750,195.663 184.577,196.137 185.038 C 197.080 185.953,203.868 189.788,205.306 190.217 C 205.798 190.363,206.580 190.722,207.044 191.014 C 207.508 191.306,208.948 191.848,210.244 192.218 C 213.881 193.257,215.102 194.672,213.700 196.225 C 209.927 200.404,207.661 207.709,208.807 212.000 C 209.071 212.990,209.376 214.564,209.484 215.497 L 209.680 217.194 207.740 217.997 C 206.673 218.439,205.460 218.997,205.045 219.237 C 203.959 219.867,194.770 221.474,189.287 221.993 C 186.709 222.237,182.620 222.696,180.200 223.012 C 174.050 223.817,163.832 224.396,155.754 224.398 C 145.936 224.401,146.132 224.651,147.377 213.683 C 147.694 210.888,148.152 206.620,148.395 204.200 C 149.749 190.697,152.665 179.101,156.810 170.737 C 160.156 163.986,161.976 161.420,167.400 155.806 C 174.591 148.363,188.598 141.086,201.800 137.935 C 203.560 137.515,205.540 137.016,206.200 136.827 C 207.826 136.359,218.656 136.329,220.400 136.786 M223.800 142.793 C 221.990 143.205,219.985 144.357,219.750 145.121 C 219.635 145.494,219.360 146.136,219.138 146.548 C 218.767 147.234,218.860 147.275,220.267 147.052 C 225.114 146.282,225.057 146.281,225.842 147.097 C 226.842 148.136,229.048 148.573,229.348 147.791 C 230.094 145.847,226.119 142.266,223.800 142.793 M197.533 144.728 C 195.235 145.666,193.420 148.620,194.410 149.812 C 194.851 150.344,195.072 150.319,196.290 149.600 C 198.192 148.478,199.201 148.477,201.311 149.597 C 203.498 150.757,204.400 150.325,204.400 148.120 C 204.400 145.283,200.679 143.445,197.533 144.728 M275.385 150.776 C 275.900 151.610,272.285 154.000,270.509 154.000 C 270.115 154.000,269.568 154.360,269.293 154.800 C 269.018 155.240,268.539 155.600,268.227 155.600 C 267.916 155.600,267.125 156.051,266.471 156.602 C 264.933 157.896,263.008 158.320,262.670 157.438 C 262.535 157.087,262.574 156.800,262.757 156.800 C 262.939 156.800,263.788 156.324,264.644 155.742 C 265.500 155.160,266.785 154.521,267.500 154.323 C 268.215 154.125,268.800 153.737,268.800 153.462 C 268.800 153.186,269.475 152.721,270.300 152.429 C 271.125 152.136,272.122 151.560,272.516 151.148 C 273.269 150.361,274.990 150.137,275.385 150.776 M187.600 162.296 C 185.392 163.151,183.646 166.621,184.413 168.631 C 184.895 169.891,186.000 169.175,186.000 167.602 C 186.000 166.763,188.316 164.571,189.600 164.195 C 190.150 164.034,190.837 163.712,191.127 163.480 C 192.170 162.643,189.240 161.660,187.600 162.296 M274.366 168.337 C 275.016 169.551,273.666 171.836,272.400 171.665 C 271.186 171.502,270.972 171.294,270.661 169.968 C 270.272 168.312,273.575 166.858,274.366 168.337 M267.532 171.536 C 267.705 172.749,265.842 175.421,264.282 176.199 C 262.701 176.987,261.600 176.143,261.600 174.143 C 261.600 171.609,267.193 169.152,267.532 171.536 M182.000 174.835 C 182.000 177.659,186.100 183.195,190.074 185.736 C 191.324 186.536,192.460 187.373,192.597 187.595 C 192.973 188.204,195.083 188.082,195.330 187.437 C 195.467 187.082,195.122 186.699,194.393 186.397 C 193.758 186.134,192.956 185.487,192.610 184.960 C 192.264 184.432,191.797 184.000,191.571 184.000 C 190.943 184.000,186.000 178.868,186.000 178.217 C 186.000 177.903,185.660 177.407,185.244 177.116 C 184.829 176.825,184.208 175.915,183.865 175.093 C 183.087 173.232,182.000 173.082,182.000 174.835 M259.733 174.326 C 260.351 175.008,260.269 175.187,258.363 177.326 C 255.504 180.533,253.973 180.488,253.928 177.195 C 253.888 174.311,257.917 172.319,259.733 174.326 M279.385 175.767 C 287.451 183.964,285.408 195.600,275.902 195.600 C 273.185 195.600,272.619 195.182,269.234 190.675 C 267.716 188.654,265.107 185.677,263.437 184.061 C 260.007 180.740,259.986 180.608,262.850 180.269 C 264.113 180.119,265.262 179.706,265.788 179.212 C 266.695 178.360,270.000 178.030,270.000 178.792 C 270.000 179.007,270.700 179.541,271.555 179.977 C 273.378 180.907,277.417 185.219,278.253 187.128 C 278.955 188.732,279.754 188.606,279.926 186.864 C 280.010 186.009,279.747 185.178,279.126 184.341 C 277.593 182.274,273.290 178.083,272.417 177.805 C 271.324 177.458,271.375 176.085,272.500 175.562 C 272.995 175.333,274.030 174.797,274.800 174.373 C 276.781 173.281,277.005 173.349,279.385 175.767 M251.170 176.564 C 251.839 177.369,249.588 180.942,247.996 181.601 C 245.853 182.489,243.996 180.384,244.861 178.047 C 245.481 176.370,250.106 175.282,251.170 176.564 M203.497 177.866 C 203.043 178.862,203.041 178.862,202.720 177.996 C 202.331 176.944,202.623 176.357,203.389 176.651 C 203.839 176.824,203.861 177.067,203.497 177.866 M242.000 179.773 C 242.000 181.361,241.319 182.252,239.920 182.494 C 238.105 182.809,238.112 179.403,239.929 178.300 C 241.267 177.488,242.000 178.009,242.000 179.773 M212.092 178.551 C 213.010 179.248,211.495 180.800,209.897 180.800 C 208.413 180.800,207.291 179.215,208.269 178.500 C 209.154 177.853,211.208 177.880,212.092 178.551 M222.115 179.771 C 221.939 182.193,217.554 183.557,216.468 181.527 C 215.336 179.412,216.397 178.346,219.497 178.482 L 222.200 178.600 222.115 179.771 M235.531 178.749 C 237.421 179.947,232.848 185.600,229.989 185.600 C 228.707 185.600,226.488 183.397,226.364 182.000 C 226.178 179.895,226.407 178.857,227.100 178.676 C 228.360 178.347,234.987 178.404,235.531 178.749 M254.267 182.951 C 255.841 184.142,254.419 185.750,251.405 186.188 C 250.308 186.347,248.953 186.714,248.394 187.003 C 247.836 187.292,244.863 187.921,241.789 188.400 C 238.715 188.880,235.611 189.366,234.890 189.481 C 234.170 189.596,232.550 189.549,231.290 189.377 L 229.000 189.064 231.000 188.751 C 232.260 188.554,233.248 188.132,233.671 187.611 C 234.401 186.710,236.956 185.490,237.330 185.863 C 237.883 186.417,240.868 186.005,241.838 185.242 C 242.864 184.435,244.452 184.431,246.029 185.232 C 246.607 185.526,248.294 184.845,251.600 182.981 C 252.386 182.538,253.703 182.523,254.267 182.951 M329.796 216.547 C 330.449 217.025,325.638 220.000,324.212 220.000 C 323.260 220.000,309.606 228.160,305.877 230.958 C 294.044 239.835,293.275 242.642,302.312 243.963 C 305.600 244.444,313.430 246.585,314.210 247.216 C 314.435 247.399,315.515 247.849,316.610 248.216 C 317.704 248.583,318.870 249.097,319.200 249.358 C 319.530 249.618,320.430 250.138,321.200 250.513 C 321.970 250.888,322.960 251.418,323.400 251.690 C 326.007 253.303,328.739 255.096,329.653 255.795 C 331.902 257.515,333.297 258.645,334.523 259.741 C 335.226 260.369,336.390 261.339,337.111 261.897 C 339.957 264.100,338.632 264.323,327.316 263.550 C 312.461 262.534,300.859 262.282,290.800 262.757 C 272.691 263.612,259.696 264.432,255.400 264.991 C 252.980 265.306,248.840 265.764,246.200 266.009 C 243.560 266.254,240.140 266.698,238.600 266.997 C 237.060 267.296,233.910 267.741,231.600 267.985 C 229.290 268.229,225.960 268.685,224.200 268.998 C 222.440 269.310,219.020 269.768,216.600 270.014 C 214.180 270.260,211.120 270.704,209.800 271.001 C 208.480 271.297,205.510 271.739,203.200 271.983 C 200.890 272.227,197.560 272.682,195.800 272.994 C 194.040 273.307,190.710 273.757,188.400 273.994 C 186.090 274.232,182.760 274.681,181.000 274.992 C 179.240 275.304,175.309 275.841,172.264 276.186 C 169.219 276.531,165.979 276.978,165.064 277.180 C 164.149 277.382,160.700 277.839,157.400 278.197 C 154.100 278.554,150.680 279.003,149.800 279.195 C 148.920 279.386,144.692 279.842,140.404 280.207 C 136.117 280.572,132.503 280.936,132.375 281.016 C 131.266 281.701,97.246 283.196,82.719 283.198 L 70.037 283.200 70.719 281.992 C 71.178 281.177,71.922 280.627,73.000 280.303 C 74.336 279.902,80.261 276.928,82.400 275.585 C 82.730 275.378,83.714 274.823,84.588 274.351 C 85.461 273.880,86.631 273.185,87.188 272.806 C 87.744 272.427,89.531 271.242,91.158 270.172 C 98.334 265.451,104.524 259.663,104.136 258.035 C 103.752 256.421,103.337 256.121,101.093 255.831 C 93.086 254.798,81.034 250.544,75.707 246.871 C 75.098 246.451,73.610 245.469,72.400 244.689 C 71.190 243.909,68.761 242.069,67.002 240.600 C 65.242 239.131,63.608 237.810,63.369 237.665 C 63.130 237.519,62.653 236.825,62.309 236.121 C 61.511 234.493,61.851 234.396,66.000 235.065 C 74.365 236.415,113.286 236.761,126.800 235.606 C 129.110 235.408,135.590 234.880,141.200 234.432 C 146.810 233.983,152.210 233.430,153.200 233.203 C 154.190 232.975,157.340 232.538,160.200 232.231 C 163.060 231.925,167.110 231.392,169.200 231.048 C 172.926 230.434,177.819 229.768,187.400 228.571 C 190.040 228.241,193.730 227.705,195.600 227.380 C 197.470 227.056,201.430 226.514,204.400 226.178 C 207.370 225.841,210.430 225.402,211.200 225.202 C 211.970 225.002,215.179 224.558,218.332 224.214 C 221.484 223.870,224.814 223.424,225.732 223.222 C 226.649 223.020,230.010 222.562,233.200 222.204 C 236.390 221.847,239.630 221.391,240.400 221.191 C 241.170 220.992,244.680 220.548,248.200 220.206 C 251.720 219.864,255.500 219.415,256.600 219.207 C 257.700 219.000,261.120 218.639,264.200 218.404 C 267.280 218.170,273.040 217.692,277.000 217.343 C 292.116 216.007,328.312 215.462,329.796 216.547 M228.398 229.001 C 227.202 229.772,225.942 230.491,225.598 230.600 C 223.978 231.115,223.523 233.035,224.781 234.053 C 226.777 235.668,228.478 249.489,226.965 251.798 C 226.553 252.426,226.418 253.171,226.581 253.914 L 226.833 255.060 230.998 254.430 C 235.499 253.749,236.673 253.188,235.222 252.412 C 232.872 251.154,231.908 246.719,233.826 245.990 C 235.175 245.477,236.090 245.990,237.226 247.895 C 239.395 251.529,240.666 252.400,243.805 252.400 C 247.385 252.400,248.796 251.615,247.232 250.494 C 242.693 247.240,236.695 240.000,238.538 240.000 C 238.834 240.000,239.419 239.619,239.838 239.154 C 240.257 238.689,241.010 238.152,241.510 237.960 C 243.669 237.134,242.536 234.545,240.224 235.022 C 238.698 235.337,238.002 236.196,237.993 237.776 C 237.983 239.401,235.332 241.715,233.696 241.526 L 232.600 241.400 232.272 235.008 C 231.856 226.897,231.800 226.810,228.398 229.001 M177.907 234.987 C 177.224 235.588,176.100 236.036,174.907 236.182 C 173.858 236.310,171.740 236.703,170.200 237.054 C 167.171 237.745,164.225 237.810,162.129 237.232 C 160.549 236.795,159.666 237.765,158.825 240.858 C 157.780 244.699,159.240 245.208,162.444 242.119 C 164.715 239.929,166.912 239.249,167.508 240.551 C 168.700 243.153,170.144 258.500,169.353 260.161 C 168.786 261.352,168.577 263.741,169.106 262.974 C 169.268 262.740,171.504 262.333,174.076 262.071 C 179.521 261.515,180.398 261.284,179.527 260.636 C 177.718 259.290,176.856 256.687,176.203 250.600 C 175.848 247.300,175.389 243.970,175.181 243.200 C 173.962 238.673,175.039 237.509,179.454 238.579 C 183.410 239.539,183.384 239.540,183.527 238.292 C 183.875 235.264,180.109 233.049,177.907 234.987 M215.617 238.081 C 211.832 238.548,209.082 239.729,207.606 241.519 L 206.447 242.925 207.197 244.395 C 208.086 246.136,209.536 247.296,213.626 249.535 C 217.677 251.752,218.603 252.732,217.771 253.919 C 216.628 255.551,214.111 254.855,211.668 252.231 C 210.935 251.444,210.080 250.800,209.768 250.800 C 209.455 250.800,209.078 250.788,208.928 250.773 C 208.779 250.758,208.316 251.658,207.900 252.773 C 207.224 254.586,207.018 254.800,205.952 254.800 C 204.999 254.800,202.508 253.889,202.369 253.490 C 202.351 253.440,202.204 251.749,202.041 249.732 C 201.549 243.642,199.263 240.800,194.853 240.800 C 191.010 240.800,185.790 245.666,187.348 247.797 C 188.320 249.126,192.065 248.220,192.311 246.597 C 192.651 244.342,192.811 244.089,193.997 243.915 C 196.343 243.571,197.530 246.515,195.675 248.076 C 194.556 249.017,194.555 249.027,195.265 250.201 C 197.076 253.195,196.443 257.119,194.189 256.870 C 192.050 256.634,191.598 253.576,193.450 251.859 C 195.867 249.618,192.213 249.371,189.177 251.570 C 185.630 254.140,185.139 256.245,187.483 258.839 L 188.966 260.481 191.734 260.325 C 194.195 260.185,194.600 260.044,195.397 259.044 C 196.487 257.678,198.586 257.146,200.000 257.878 C 202.024 258.925,204.963 258.277,205.582 256.646 C 206.128 255.210,206.655 255.069,207.935 256.015 C 209.951 257.506,219.711 256.486,221.572 254.591 C 224.453 251.655,222.872 248.768,216.792 245.864 C 213.276 244.184,212.324 243.240,212.630 241.732 C 213.088 239.476,215.199 239.591,217.800 242.014 C 219.894 243.966,221.375 243.788,221.519 241.568 C 221.733 238.274,220.407 237.490,215.617 238.081 M333.100 278.654 C 337.932 279.018,337.845 279.992,332.608 284.204 C 326.536 289.087,325.928 290.423,328.739 292.695 C 331.115 294.616,333.088 296.000,333.452 296.000 C 333.609 296.000,334.831 296.516,336.168 297.146 C 337.506 297.777,339.905 298.902,341.500 299.646 C 344.564 301.077,344.823 301.347,343.700 301.943 C 342.758 302.443,331.314 303.473,318.600 304.201 C 312.880 304.529,306.760 304.971,305.000 305.183 C 303.240 305.395,298.830 305.767,295.200 306.009 C 291.570 306.252,286.813 306.709,284.630 307.025 C 282.446 307.341,279.836 307.605,278.830 307.612 C 277.823 307.618,274.750 307.978,272.000 308.412 C 269.250 308.846,264.509 309.558,261.466 309.995 C 258.422 310.431,255.272 310.968,254.466 311.187 C 253.659 311.405,251.650 311.771,250.000 311.999 C 248.350 312.227,245.380 312.758,243.400 313.178 C 238.823 314.150,234.087 315.069,228.957 315.981 C 226.734 316.377,224.304 316.888,223.557 317.119 C 222.811 317.349,220.940 317.735,219.400 317.977 C 217.860 318.218,215.070 318.759,213.200 319.179 C 208.087 320.328,203.741 321.232,200.400 321.843 C 198.750 322.144,195.870 322.748,194.000 323.184 C 181.760 326.038,172.243 327.670,173.100 326.767 C 173.375 326.477,173.600 325.955,173.600 325.607 C 173.600 325.258,174.185 324.042,174.900 322.905 C 175.615 321.767,176.740 319.913,177.400 318.785 C 178.060 317.656,178.802 316.514,179.048 316.247 C 179.295 315.980,179.796 315.230,180.163 314.580 C 180.529 313.931,181.357 312.590,182.003 311.600 C 182.648 310.610,183.715 308.724,184.372 307.409 L 185.568 305.017 184.684 304.054 C 183.499 302.763,181.151 301.782,178.000 301.262 C 174.922 300.754,161.462 299.594,158.600 299.591 C 153.056 299.585,153.430 297.375,159.200 296.049 C 163.544 295.051,167.264 294.118,169.811 293.390 C 172.177 292.714,177.504 291.532,184.200 290.199 C 186.840 289.673,190.170 288.967,191.600 288.630 C 193.030 288.293,194.787 288.013,195.504 288.008 C 196.222 288.004,198.414 287.642,200.375 287.205 C 202.337 286.768,205.260 286.307,206.871 286.180 C 208.482 286.053,211.060 285.689,212.600 285.371 C 214.140 285.053,218.010 284.444,221.200 284.016 C 224.390 283.589,228.980 282.963,231.400 282.626 C 236.431 281.924,240.878 281.336,245.200 280.800 C 246.850 280.596,251.530 280.242,255.600 280.014 C 259.670 279.786,265.160 279.406,267.800 279.170 C 279.512 278.125,321.642 277.792,333.100 278.654 M314.025 281.373 C 313.248 282.200,312.953 282.285,312.055 281.940 C 310.919 281.502,308.041 281.748,306.005 282.458 L 304.744 282.898 305.718 283.949 C 307.420 285.787,308.132 290.416,306.982 292.172 C 306.198 293.368,306.581 295.312,307.546 295.041 C 307.906 294.941,309.010 294.736,310.000 294.586 C 312.546 294.200,313.293 293.468,312.564 292.072 C 310.817 288.723,313.121 283.296,315.218 285.822 C 317.782 288.911,320.643 284.967,318.180 281.738 C 316.921 280.088,315.361 279.951,314.025 281.373 M295.398 282.370 C 291.958 283.196,288.400 287.182,288.400 290.209 C 288.400 294.222,293.481 297.778,296.705 296.022 C 297.087 295.814,298.120 295.504,299.000 295.333 L 300.600 295.022 298.801 294.883 C 294.797 294.574,294.927 291.555,299.000 290.261 C 299.440 290.121,300.266 289.420,300.835 288.703 C 304.104 284.588,301.038 281.017,295.398 282.370 M281.400 284.481 C 280.960 284.733,280.367 285.264,280.083 285.661 C 279.646 286.272,279.201 286.346,277.219 286.139 C 271.007 285.490,268.470 293.030,273.533 297.098 C 276.616 299.575,280.169 296.860,277.429 294.120 C 275.705 292.396,275.920 289.177,277.819 288.271 L 279.239 287.595 279.819 288.984 C 280.482 290.571,280.583 293.311,280.017 294.369 C 279.721 294.922,279.857 295.280,280.617 295.940 C 281.817 296.984,281.868 298.371,280.791 300.744 C 280.356 301.703,279.997 302.693,279.994 302.944 C 279.978 304.093,279.356 304.454,278.254 303.952 C 277.260 303.499,277.024 303.053,276.716 301.048 C 276.500 299.646,275.184 299.174,273.600 299.933 C 270.159 301.580,272.853 306.772,276.908 306.309 C 282.905 305.624,286.815 298.609,285.551 290.800 C 285.284 289.150,285.092 287.129,285.123 286.309 C 285.203 284.219,283.404 283.336,281.400 284.481 M297.919 286.026 C 298.009 287.407,297.830 288.109,297.173 288.944 C 295.360 291.248,293.646 289.281,294.831 286.257 C 295.945 283.415,297.739 283.280,297.919 286.026 M260.000 286.694 C 256.385 288.083,254.502 292.411,257.520 292.394 C 259.035 292.385,259.508 291.988,260.125 290.203 C 260.832 288.163,261.264 288.084,262.547 289.766 L 263.610 291.160 262.730 291.980 C 262.245 292.431,261.699 292.800,261.516 292.800 C 261.333 292.800,261.564 293.546,262.029 294.457 C 262.831 296.028,262.891 297.324,262.234 298.849 C 262.001 299.389,262.341 299.544,264.277 299.779 C 270.333 300.513,271.164 299.820,268.375 296.363 C 267.847 295.709,267.418 294.381,267.214 292.763 C 266.587 287.810,263.611 285.306,260.000 286.694 M206.400 289.120 L 204.200 290.226 204.082 293.150 C 203.951 296.384,204.228 296.986,206.013 297.343 C 206.825 297.505,207.352 297.938,207.656 298.691 C 210.286 305.215,212.143 307.603,214.578 307.594 C 217.794 307.582,219.510 305.620,217.473 304.285 C 216.061 303.359,214.400 300.300,214.400 298.623 C 214.400 297.548,214.104 296.915,213.218 296.094 C 211.322 294.340,209.953 291.376,210.443 290.088 C 211.265 287.924,209.580 287.521,206.400 289.120 M245.000 289.618 C 243.704 290.124,242.547 290.314,241.711 290.157 C 241.002 290.024,239.531 290.129,238.443 290.390 L 236.465 290.864 237.213 293.037 C 238.121 295.676,238.393 301.644,237.647 302.543 C 236.868 303.483,238.467 304.194,240.088 303.629 C 240.765 303.393,241.764 303.200,242.306 303.200 C 243.176 303.200,243.264 303.070,243.045 302.100 C 241.880 296.936,242.311 292.270,243.919 292.649 C 245.460 293.012,245.565 293.175,246.056 295.960 C 246.840 300.412,249.744 303.022,252.358 301.622 C 253.141 301.204,253.142 301.169,252.416 299.498 C 252.010 298.564,251.555 296.720,251.405 295.400 C 251.060 292.375,250.136 290.451,248.600 289.557 C 247.115 288.692,247.383 288.688,245.000 289.618 M191.291 291.792 C 187.249 292.882,187.226 292.904,188.939 293.962 C 189.699 294.432,190.428 295.097,190.560 295.441 C 191.360 297.524,190.155 307.506,188.841 309.677 C 187.213 312.369,189.009 313.562,191.885 311.700 C 192.682 311.185,192.715 311.041,192.212 310.264 C 191.818 309.654,191.650 308.038,191.642 304.772 C 191.635 302.226,191.514 299.841,191.372 299.472 C 190.776 297.919,193.091 298.715,194.070 300.400 C 198.731 308.420,198.758 308.456,200.119 308.324 C 202.408 308.103,204.652 302.566,203.587 299.767 C 203.233 298.834,203.106 298.766,202.687 299.285 C 201.558 300.683,200.877 300.437,200.194 298.383 C 199.834 297.297,199.386 296.315,199.200 296.200 C 199.014 296.085,198.563 295.093,198.199 293.996 C 197.081 290.631,196.402 290.414,191.291 291.792 M223.685 292.879 C 222.515 293.602,220.800 296.138,220.800 297.145 C 220.800 298.880,224.302 298.327,224.638 296.539 C 224.949 294.878,226.491 293.646,227.358 294.365 C 229.013 295.738,228.069 298.800,225.991 298.800 C 225.336 298.800,224.800 298.966,224.800 299.168 C 224.800 299.371,224.273 299.652,223.628 299.794 C 222.327 300.080,220.525 302.171,219.999 304.004 C 219.680 305.117,219.770 305.239,221.780 306.389 C 224.445 307.913,224.705 307.904,226.844 306.204 C 228.764 304.677,230.165 304.451,231.960 305.379 C 233.141 305.990,234.800 305.372,234.800 304.321 C 234.800 304.083,235.115 303.649,235.500 303.357 C 236.067 302.926,236.086 302.823,235.600 302.811 C 233.789 302.766,232.658 301.009,232.348 297.757 C 231.850 292.537,227.868 290.295,223.685 292.879 M256.747 295.483 C 254.035 298.321,255.292 302.000,258.974 302.000 C 261.942 302.000,262.755 300.792,260.980 299.017 C 260.125 298.161,259.980 297.690,260.080 296.098 C 260.246 293.479,258.899 293.230,256.747 295.483 M227.520 300.080 C 228.350 300.910,228.141 304.400,227.262 304.400 C 225.537 304.400,224.995 302.781,225.821 300.100 C 226.016 299.466,226.895 299.455,227.520 300.080 " stroke="none" fill="#000" fill-rule="evenodd"></path></g></svg>